<svg width="48" height="40" viewBox="0 0 48 40" fill="none" xmlns="http://www.w3.org/2000/svg">
<path fill-rule="evenodd" clip-rule="evenodd" d="M45.7451 13.1073C45.8254 12.6228 45.687 12.1272 45.37 11.7521C45.0507 11.3793 44.5841 11.1627 44.093 11.1627H3.90691C3.41575 11.1627 2.94915 11.3793 2.62989 11.7521C2.31287 12.1272 2.17445 12.6228 2.25482 13.1073C2.25482 13.1073 4.5365 27.0474 5.65947 33.9214C6.14617 36.8907 8.71138 39.0697 11.7186 39.0697H36.2812C39.2885 39.0697 41.8537 36.8907 42.3404 33.9214L45.7451 13.1073ZM42.1216 14.5116L39.034 33.3811C38.813 34.7296 37.6476 35.7209 36.2812 35.7209C30.0948 35.7209 17.9051 35.7209 11.7186 35.7209C10.3523 35.7209 9.18691 34.7296 8.96589 33.3811L5.87826 14.5116H42.1216Z" fill="#FFD600"/>
<path fill-rule="evenodd" clip-rule="evenodd" d="M38.831 11.9754L32.1333 0.812581C31.6578 0.0200224 30.6286 -0.236722 29.836 0.238813C29.0435 0.714348 28.7867 1.74356 29.2623 2.53612L35.9599 13.6989C36.4355 14.4915 37.4647 14.7482 38.2572 14.2727C39.0498 13.7971 39.3065 12.7679 38.831 11.9754Z" fill="#FFD600"/>
<path fill-rule="evenodd" clip-rule="evenodd" d="M12.0405 13.6989L18.7382 2.53612C19.2138 1.74356 18.957 0.714348 18.1645 0.238813C17.3719 -0.236722 16.3427 0.0200224 15.8672 0.812581L9.16948 11.9754C8.69394 12.7679 8.95069 13.7971 9.74324 14.2727C10.5358 14.7482 11.565 14.4915 12.0405 13.6989Z" fill="#FFD600"/>
<path fill-rule="evenodd" clip-rule="evenodd" d="M22.3271 20.6511V29.5813C22.3271 30.5056 23.0773 31.2557 24.0016 31.2557C24.9258 31.2557 25.676 30.5056 25.676 29.5813V20.6511C25.676 19.7268 24.9258 18.9767 24.0016 18.9767C23.0773 18.9767 22.3271 19.7268 22.3271 20.6511Z" fill="#FFD600"/>
<path fill-rule="evenodd" clip-rule="evenodd" d="M13.3965 20.6511V29.5813C13.3965 30.5056 14.1466 31.2557 15.0709 31.2557C15.9952 31.2557 16.7453 30.5056 16.7453 29.5813V20.6511C16.7453 19.7268 15.9952 18.9767 15.0709 18.9767C14.1466 18.9767 13.3965 19.7268 13.3965 20.6511Z" fill="#FFD600"/>
<path fill-rule="evenodd" clip-rule="evenodd" d="M31.2568 20.6511V29.5813C31.2568 30.5056 32.007 31.2557 32.9313 31.2557C33.8555 31.2557 34.6057 30.5056 34.6057 29.5813V20.6511C34.6057 19.7268 33.8555 18.9767 32.9313 18.9767C32.007 18.9767 31.2568 19.7268 31.2568 20.6511Z" fill="#FFD600"/>
<path fill-rule="evenodd" clip-rule="evenodd" d="M46.3256 11.1627H1.67442C0.75014 11.1627 0 11.9129 0 12.8371C0 13.7614 0.75014 14.5116 1.67442 14.5116H46.3256C47.2499 14.5116 48 13.7614 48 12.8371C48 11.9129 47.2499 11.1627 46.3256 11.1627Z" fill="#FFD600"/>
</svg>
