<svg width="43" height="40" viewBox="0 0 43 40" fill="none" xmlns="http://www.w3.org/2000/svg">
<path d="M25.4516 2.70194L25.4517 2.70189C27.0131 1.90403 28.6952 1.5 30.4645 1.5C36.5481 1.5 41.5 6.45185 41.5 12.5355C41.5 16.8894 39.195 21.7364 34.2285 26.9562C30.1239 31.27 25.075 34.9004 21.5 37.2166C17.925 34.9003 12.8761 31.27 8.77155 26.9562C3.80499 21.7364 1.5 16.8894 1.5 12.5355C1.5 6.45185 6.45186 1.5 12.5354 1.5C14.3047 1.5 15.9868 1.90403 17.5484 2.7019L17.5484 2.70194C18.6094 3.24397 19.5878 3.96629 20.4281 4.82475L21.5 5.91985L22.5719 4.82475C23.4122 3.96629 24.3906 3.24397 25.4516 2.70194Z" fill="white" stroke="black" stroke-width="3"/>
</svg>
