<svg width="43" height="41" viewBox="0 0 43 41" fill="none" xmlns="http://www.w3.org/2000/svg">
<path d="M30.4645 0.998657C28.4595 0.998657 26.5433 1.45827 24.7692 2.36482C23.5614 2.9818 22.452 3.80155 21.5 4.77415C20.548 3.80155 19.4386 2.9818 18.2308 2.36482C16.4566 1.45827 14.5404 0.998657 12.5354 0.998657C5.62343 0.998657 0 6.62208 0 13.5342C0 18.4299 2.58559 23.6295 7.68485 28.9888C11.9425 33.4636 17.1551 37.1937 20.7782 39.5349L21.5 40.0013L22.2218 39.5349C25.8449 37.1937 31.0575 33.4636 35.3151 28.9888C40.4144 23.6295 43 18.4299 43 13.5342C43 6.62208 37.3766 0.998657 30.4645 0.998657Z" fill="white"/>
</svg>
