<svg width="35" height="35" viewBox="0 0 35 35" fill="none" xmlns="http://www.w3.org/2000/svg">
<g clip-path="url(#clip0_54_15628)">
<path d="M33.3135 20.9881C30.802 23.2659 27.555 24.5204 24.1712 24.5204C16.6594 24.5204 10.5479 18.4092 10.5479 10.8971C10.5479 7.51333 11.8024 4.26653 14.0802 1.75486C14.7846 0.97807 14.0292 -0.243854 13.0182 0.0426677C5.606 2.14232 0.0683594 8.96918 0.0683594 17.1849C0.0683594 27.0307 8.03623 35 17.8835 35C26.0802 35 32.9207 29.481 35.0256 22.0501C35.3116 21.0413 34.0921 20.2824 33.3135 20.9881ZM17.8835 32.904C9.21597 32.904 2.16427 25.8523 2.16427 17.1849C2.16427 11.3652 5.41134 6.085 10.3719 3.37439C9.11984 5.66469 8.452 8.24446 8.452 10.8971C8.452 19.5646 15.5034 26.6163 24.1712 26.6163C26.8241 26.6163 29.4036 25.9485 31.6939 24.6964C28.9833 29.657 23.7031 32.904 17.8835 32.904Z" fill="#FFD600"/>
<path d="M17.4232 13.8332L19.9052 15.0743L21.1464 17.5564C21.324 17.9112 21.6866 18.1356 22.0837 18.1356C22.4805 18.1356 22.8434 17.9112 23.0209 17.5564L24.2621 15.0743L26.7441 13.8332C27.099 13.6556 27.3233 13.2927 27.3233 12.8959C27.3233 12.4988 27.099 12.1359 26.7441 11.9584L24.2621 10.7175L23.0209 8.23546C22.8434 7.88031 22.4805 7.65601 22.0837 7.65601C21.6866 7.65601 21.3237 7.88031 21.1464 8.23546L19.9052 10.7175L17.4232 11.9584C17.0681 12.1359 16.8438 12.4988 16.8438 12.8959C16.8438 13.2927 17.0681 13.6556 17.4232 13.8332ZM21.1549 12.4358C21.3579 12.3344 21.5224 12.1699 21.6236 11.9672L22.0837 11.0473L22.5437 11.9672C22.645 12.1699 22.8094 12.3344 23.0124 12.4358L23.9323 12.8956L23.0121 13.3557C22.8094 13.4572 22.645 13.6217 22.5437 13.8244L22.0837 14.7443L21.6236 13.8244C21.5224 13.6217 21.3579 13.4572 21.1549 13.3557L20.235 12.8959L21.1549 12.4358Z" fill="#FFD600"/>
<path d="M28.3625 5.65764H29.4104V6.70546C29.4104 7.28438 29.8795 7.75355 30.4585 7.75355C31.0371 7.75355 31.5063 7.28438 31.5063 6.70546V5.65764H32.5541C33.133 5.65764 33.6022 5.18847 33.6022 4.60955C33.6022 4.0309 33.133 3.56173 32.5541 3.56173H31.5063V2.51364C31.5063 1.93499 31.0371 1.46582 30.4585 1.46582C29.8795 1.46582 29.4104 1.93499 29.4104 2.51364V3.56173H28.3625C27.7836 3.56173 27.3145 4.0309 27.3145 4.60955C27.3145 5.18847 27.7836 5.65764 28.3625 5.65764Z" fill="#FFD600"/>
</g>
<defs>
<clipPath id="clip0_54_15628">
<rect width="35" height="35" fill="white"/>
</clipPath>
</defs>
</svg>
