<svg width="35" height="35" viewBox="0 0 35 35" fill="none" xmlns="http://www.w3.org/2000/svg">
<g clip-path="url(#clip0_54_13639)">
<path d="M9.25049 7.18817L7.18841 5.12608C6.61966 4.5566 5.69508 4.5566 5.12633 5.12608C4.55685 5.69556 4.55685 6.61869 5.12633 7.18817L7.18841 9.25025C7.47279 9.53535 7.84612 9.67754 8.21945 9.67754C8.59279 9.67754 8.96612 9.53535 9.25049 9.25025C9.81997 8.68077 9.81997 7.75765 9.25049 7.18817Z" fill="#FFD600"/>
<path d="M4.375 16.0417H1.45833C0.653333 16.0417 0 16.6951 0 17.5001C0 18.3051 0.653333 18.9584 1.45833 18.9584H4.375C5.18 18.9584 5.83333 18.3051 5.83333 17.5001C5.83333 16.6951 5.18 16.0417 4.375 16.0417Z" fill="#FFD600"/>
<path d="M9.25049 25.7499C8.68174 25.1804 7.75716 25.1804 7.18841 25.7499L5.12633 27.8119C4.55685 28.3814 4.55685 29.3046 5.12633 29.874C5.4107 30.1591 5.78404 30.3013 6.15737 30.3013C6.5307 30.3013 6.90404 30.1591 7.18841 29.874L9.25049 27.8119C9.81997 27.2425 9.81997 26.3193 9.25049 25.7499Z" fill="#FFD600"/>
<path d="M17.4993 29.1667C16.6943 29.1667 16.041 29.8201 16.041 30.6251V33.5417C16.041 34.3467 16.6943 35.0001 17.4993 35.0001C18.3043 35.0001 18.9577 34.3467 18.9577 33.5417V30.6251C18.9577 29.8201 18.3043 29.1667 17.4993 29.1667Z" fill="#FFD600"/>
<path d="M29.8735 27.8119L27.8115 25.7499C27.2427 25.1804 26.3181 25.1804 25.7494 25.7499C25.1799 26.3193 25.1799 27.2425 25.7494 27.8119L27.8115 29.874C28.0958 30.1591 28.4692 30.3013 28.8425 30.3013C29.2158 30.3013 29.5892 30.1591 29.8735 29.874C30.443 29.3046 30.443 28.3814 29.8735 27.8119Z" fill="#FFD600"/>
<path d="M33.541 16.0417H30.6243C29.8193 16.0417 29.166 16.6951 29.166 17.5001C29.166 18.3051 29.8193 18.9584 30.6243 18.9584H33.541C34.346 18.9584 34.9993 18.3051 34.9993 17.5001C34.9993 16.6951 34.346 16.0417 33.541 16.0417Z" fill="#FFD600"/>
<path d="M29.8735 5.12608C29.3048 4.5566 28.3802 4.5566 27.8115 5.12608L25.7494 7.18817C25.1799 7.75765 25.1799 8.68077 25.7494 9.25025C26.0337 9.53535 26.4071 9.67754 26.7804 9.67754C27.1538 9.67754 27.5271 9.53535 27.8115 9.25025L29.8735 7.18817C30.443 6.61869 30.443 5.69556 29.8735 5.12608Z" fill="#FFD600"/>
<path d="M17.4993 0C16.6943 0 16.041 0.653333 16.041 1.45833V4.375C16.041 5.18 16.6943 5.83333 17.4993 5.83333C18.3043 5.83333 18.9577 5.18 18.9577 4.375V1.45833C18.9577 0.653333 18.3043 0 17.4993 0Z" fill="#FFD600"/>
<path d="M17.5007 8.02075C12.274 8.02075 8.02148 12.2733 8.02148 17.4999C8.02148 22.7266 12.274 26.9791 17.5007 26.9791C22.7273 26.9791 26.9798 22.7266 26.9798 17.4999C26.9798 12.2733 22.7273 8.02075 17.5007 8.02075ZM17.5007 24.0624C13.8825 24.0624 10.9382 21.118 10.9382 17.4999C10.9382 13.8818 13.8825 10.9374 17.5007 10.9374C21.1188 10.9374 24.0632 13.8818 24.0632 17.4999C24.0632 21.118 21.1188 24.0624 17.5007 24.0624Z" fill="#FFD600"/>
</g>
<defs>
<clipPath id="clip0_54_13639">
<rect width="35" height="35" fill="white"/>
</clipPath>
</defs>
</svg>
