<svg width="73" height="73" viewBox="0 0 73 73" fill="none" xmlns="http://www.w3.org/2000/svg">
<g clip-path="url(#clip0_54_34993)">
<path d="M36.5004 73.0008C56.6579 73.0008 72.9989 56.6599 72.9989 36.5024C72.9989 16.3448 56.6579 0.00390625 36.5004 0.00390625C16.3429 0.00390625 0.00195312 16.3448 0.00195312 36.5024C0.00195312 56.6599 16.3429 73.0008 36.5004 73.0008Z" fill="#F3F2F2"/>
<path d="M27.0283 43.5024L29.8212 27.0107H34.3428L31.5501 43.5024H27.0283Z" fill="#293688"/>
<path d="M47.6472 27.4373C46.7511 27.1031 45.3472 26.7451 43.5939 26.7451C39.1252 26.7451 35.9774 28.9824 35.9503 32.1878C35.9255 34.5569 38.1973 35.8784 39.9136 36.6679C41.6736 37.4747 42.2655 37.9924 42.2569 38.7134C42.2459 39.8188 40.8507 40.3241 39.5506 40.3241C37.741 40.3235 36.7791 40.074 35.2939 39.4585L34.7112 39.1957L34.0762 42.8876C35.1326 43.3482 37.0862 43.7475 39.1142 43.7677C43.867 43.7666 46.9538 41.5571 46.9884 38.1332C47.0057 36.2573 45.8006 34.8297 43.1916 33.6524C41.6107 32.8904 40.6426 32.3815 40.653 31.6082C40.653 30.9229 41.4731 30.19 43.2429 30.19C44.7217 30.1669 45.793 30.4874 46.6281 30.8216L47.0328 31.0118L47.6472 27.4373Z" fill="#293688"/>
<path d="M55.357 27.0107C54.2736 27.0107 53.4909 27.3416 53.0148 28.4153L46.3135 43.503H51.1009L52.0317 40.9759H57.7516L58.2829 43.503H62.539L58.8155 27.0112H55.3572L55.357 27.0107ZM53.3019 37.676C53.6754 36.7263 55.1029 33.0666 55.1029 33.0666C55.077 33.1098 55.4745 32.1122 55.7028 31.4932L56.0088 32.9144C56.0088 32.9144 56.8738 36.8512 57.0554 37.6764H53.3019V37.676Z" fill="#293688"/>
<path d="M18.7827 38.3156L18.3844 36.0547C17.5592 33.4193 14.998 30.5677 12.1279 29.139L16.1229 43.5024H20.9115L28.0929 27.0107H23.3054L18.7827 38.3156Z" fill="#293688"/>
<path d="M7.21094 27.0112V27.2775C12.8848 28.6422 16.8239 32.0921 18.3833 36.0554L16.7438 28.4187C16.4701 27.375 15.6407 27.0476 14.6593 27.0114L7.21094 27.0112Z" fill="#F7981D"/>
<path d="M36.4971 72.9995C50.5845 72.9995 62.7993 65.0141 68.8835 53.3271H4.11133C10.1959 65.0141 22.4103 72.9995 36.4971 72.9995Z" fill="#F7981D"/>
<path d="M36.498 0C22.6342 0 10.576 7.72941 4.39746 19.1145H68.5998C62.4204 7.73003 50.3618 0 36.498 0Z" fill="#293688"/>
</g>
<defs>
<clipPath id="clip0_54_34993">
<rect width="73" height="73" fill="white"/>
</clipPath>
</defs>
</svg>
